<svg xmlns="http://www.w3.org/2000/svg" version="1.1" xmlns:xlink="http://www.w3.org/1999/xlink" xmlns:svgjs="http://svgjs.dev/svgjs" viewBox="0 0 800 800"><g stroke-width="13" stroke="hsl(205, 69%, 50%)" fill="none"><polygon points="-6.5,6.5 6.5,-6.5 806.5,793.5 793.5,806.5" stroke="none" fill="hsl(205, 69%, 50%)" clip-path="url(&quot;#SvgjsClipPath2034&quot;)" opacity="0.33" transform="translate(0 -650)"></polygon><polygon points="-6.5,6.5 6.5,-6.5 806.5,793.5 793.5,806.5" stroke="none" fill="hsl(205, 69%, 50%)" clip-path="url(&quot;#SvgjsClipPath2035&quot;)" transform="translate(0 -694)"></polygon><polygon points="-6.5,6.5 6.5,-6.5 806.5,793.5 793.5,806.5" stroke="none" fill="hsl(205, 69%, 50%)" clip-path="url(&quot;#SvgjsClipPath2034&quot;)" opacity="0.33" transform="translate(0 -530)"></polygon><polygon points="-6.5,6.5 6.5,-6.5 806.5,793.5 793.5,806.5" stroke="none" fill="hsl(205, 69%, 50%)" clip-path="url(&quot;#SvgjsClipPath2035&quot;)" transform="translate(0 -574)"></polygon><polygon points="-6.5,6.5 6.5,-6.5 806.5,793.5 793.5,806.5" stroke="none" fill="hsl(205, 69%, 50%)" clip-path="url(&quot;#SvgjsClipPath2034&quot;)" opacity="0.33" transform="translate(0 -410)"></polygon><polygon points="-6.5,6.5 6.5,-6.5 806.5,793.5 793.5,806.5" stroke="none" fill="hsl(205, 69%, 50%)" clip-path="url(&quot;#SvgjsClipPath2035&quot;)" transform="translate(0 -454)"></polygon><polygon points="-6.5,6.5 6.5,-6.5 806.5,793.5 793.5,806.5" stroke="none" fill="hsl(205, 69%, 50%)" clip-path="url(&quot;#SvgjsClipPath2034&quot;)" opacity="0.33" transform="translate(0 -290)"></polygon><polygon points="-6.5,6.5 6.5,-6.5 806.5,793.5 793.5,806.5" stroke="none" fill="hsl(205, 69%, 50%)" clip-path="url(&quot;#SvgjsClipPath2035&quot;)" transform="translate(0 -334)"></polygon><polygon points="-6.5,6.5 6.5,-6.5 806.5,793.5 793.5,806.5" stroke="none" fill="hsl(205, 69%, 50%)" clip-path="url(&quot;#SvgjsClipPath2034&quot;)" opacity="0.33" transform="translate(0 -170)"></polygon><polygon points="-6.5,6.5 6.5,-6.5 806.5,793.5 793.5,806.5" stroke="none" fill="hsl(205, 69%, 50%)" clip-path="url(&quot;#SvgjsClipPath2035&quot;)" transform="translate(0 -214)"></polygon><polygon points="-6.5,6.5 6.5,-6.5 806.5,793.5 793.5,806.5" stroke="none" fill="hsl(205, 69%, 50%)" clip-path="url(&quot;#SvgjsClipPath2034&quot;)" opacity="0.33" transform="translate(0 -50)"></polygon><polygon points="-6.5,6.5 6.5,-6.5 806.5,793.5 793.5,806.5" stroke="none" fill="hsl(205, 69%, 50%)" clip-path="url(&quot;#SvgjsClipPath2035&quot;)" transform="translate(0 -94)"></polygon><polygon points="-6.5,6.5 6.5,-6.5 806.5,793.5 793.5,806.5" stroke="none" fill="hsl(205, 69%, 50%)" clip-path="url(&quot;#SvgjsClipPath2034&quot;)" opacity="0.33" transform="translate(0 70)"></polygon><polygon points="-6.5,6.5 6.5,-6.5 806.5,793.5 793.5,806.5" stroke="none" fill="hsl(205, 69%, 50%)" clip-path="url(&quot;#SvgjsClipPath2035&quot;)" transform="translate(0 26)"></polygon><polygon points="-6.5,6.5 6.5,-6.5 806.5,793.5 793.5,806.5" stroke="none" fill="hsl(205, 69%, 50%)" clip-path="url(&quot;#SvgjsClipPath2034&quot;)" opacity="0.33" transform="translate(0 190)"></polygon><polygon points="-6.5,6.5 6.5,-6.5 806.5,793.5 793.5,806.5" stroke="none" fill="hsl(205, 69%, 50%)" clip-path="url(&quot;#SvgjsClipPath2035&quot;)" transform="translate(0 146)"></polygon><polygon points="-6.5,6.5 6.5,-6.5 806.5,793.5 793.5,806.5" stroke="none" fill="hsl(205, 69%, 50%)" clip-path="url(&quot;#SvgjsClipPath2034&quot;)" opacity="0.33" transform="translate(0 310)"></polygon><polygon points="-6.5,6.5 6.5,-6.5 806.5,793.5 793.5,806.5" stroke="none" fill="hsl(205, 69%, 50%)" clip-path="url(&quot;#SvgjsClipPath2035&quot;)" transform="translate(0 266)"></polygon><polygon points="-6.5,6.5 6.5,-6.5 806.5,793.5 793.5,806.5" stroke="none" fill="hsl(205, 69%, 50%)" clip-path="url(&quot;#SvgjsClipPath2034&quot;)" opacity="0.33" transform="translate(0 430)"></polygon><polygon points="-6.5,6.5 6.5,-6.5 806.5,793.5 793.5,806.5" stroke="none" fill="hsl(205, 69%, 50%)" clip-path="url(&quot;#SvgjsClipPath2035&quot;)" transform="translate(0 386)"></polygon><polygon points="-6.5,6.5 6.5,-6.5 806.5,793.5 793.5,806.5" stroke="none" fill="hsl(205, 69%, 50%)" clip-path="url(&quot;#SvgjsClipPath2034&quot;)" opacity="0.33" transform="translate(0 550)"></polygon><polygon points="-6.5,6.5 6.5,-6.5 806.5,793.5 793.5,806.5" stroke="none" fill="hsl(205, 69%, 50%)" clip-path="url(&quot;#SvgjsClipPath2035&quot;)" transform="translate(0 506)"></polygon><polygon points="-6.5,6.5 6.5,-6.5 806.5,793.5 793.5,806.5" stroke="none" fill="hsl(205, 69%, 50%)" clip-path="url(&quot;#SvgjsClipPath2034&quot;)" opacity="0.33" transform="translate(0 670)"></polygon><polygon points="-6.5,6.5 6.5,-6.5 806.5,793.5 793.5,806.5" stroke="none" fill="hsl(205, 69%, 50%)" clip-path="url(&quot;#SvgjsClipPath2035&quot;)" transform="translate(0 626)"></polygon><polygon points="-6.5,6.5 6.5,-6.5 806.5,793.5 793.5,806.5" stroke="none" fill="hsl(205, 69%, 50%)" clip-path="url(&quot;#SvgjsClipPath2034&quot;)" opacity="0.33" transform="translate(0 790)"></polygon><polygon points="-6.5,6.5 6.5,-6.5 806.5,793.5 793.5,806.5" stroke="none" fill="hsl(205, 69%, 50%)" clip-path="url(&quot;#SvgjsClipPath2035&quot;)" transform="translate(0 746)"></polygon></g><defs><clipPath id="SvgjsClipPath2034"><rect width="133.33333333333334" height="800" x="0" y="0"></rect><rect width="133.33333333333334" height="800" x="266.6666666666667" y="0"></rect><rect width="133.33333333333334" height="800" x="533.3333333333334" y="0"></rect><rect width="133.33333333333334" height="800" x="800" y="0"></rect><rect width="133.33333333333334" height="800" x="1066.6666666666667" y="0"></rect><rect width="133.33333333333334" height="800" x="1333.3333333333335" y="0"></rect><rect width="133.33333333333334" height="800" x="1600" y="0"></rect></clipPath><clipPath id="SvgjsClipPath2035"><rect width="133.33333333333334" height="800" x="133.33333333333334" y="0"></rect><rect width="133.33333333333334" height="800" x="400" y="0"></rect><rect width="133.33333333333334" height="800" x="666.6666666666666" y="0"></rect><rect width="133.33333333333334" height="800" x="933.3333333333334" y="0"></rect><rect width="133.33333333333334" height="800" x="1200.0000000000002" y="0"></rect><rect width="133.33333333333334" height="800" x="1466.6666666666667" y="0"></rect></clipPath></defs></svg>