<svg xmlns="http://www.w3.org/2000/svg" version="1.1" xmlns:xlink="http://www.w3.org/1999/xlink" xmlns:svgjs="http://svgjs.dev/svgjs" viewBox="0 0 1422 800"><g shape-rendering="crispEdges" stroke-linejoin="round" fill="none" stroke-width="5.5" stroke="#f7f7f7"><polygon points="1422,0 1066.5,200 1066.5,0"></polygon><polygon points="1066.5,0 1066.5,200 711,200"></polygon><polygon points="1066.5,400 1066.5,200 711,200"></polygon><polygon points="1422,200 1422,400 1066.5,400"></polygon><polygon points="355.5,0 711,200 355.5,200"></polygon><polygon points="355.5,0 0,0 0,200"></polygon><polygon points="0,200 0,400 355.5,200"></polygon><polygon points="711,400 355.5,200 711,200"></polygon><polygon points="711,400 533.25,400 533.25,500"></polygon><polygon points="533.25,400 533.25,500 355.5,500"></polygon><polygon points="355.5,600 533.25,500 355.5,500"></polygon><polygon points="711,600 711,500 533.25,500"></polygon><polygon points="0,600 355.5,400 355.5,600"></polygon><polygon points="0,600 355.5,800 355.5,600"></polygon><polygon points="711,800 711,600 355.5,600"></polygon><polygon points="1422,400 1066.5,600 1066.5,400"></polygon><polygon points="1066.5,600 711,400 711,600"></polygon><polygon points="711,600 1066.5,600 711,800"></polygon><polygon points="1422,600 1066.5,800 1066.5,600"></polygon></g><g fill="hsl(220, 62%, 45%)" stroke-width="3" stroke="hsl(220, 43%, 13%)"></g></svg>