<svg xmlns="http://www.w3.org/2000/svg" version="1.1" xmlns:xlink="http://www.w3.org/1999/xlink" xmlns:svgjs="http://svgjs.dev/svgjs" viewBox="0 0 1422 800"><g stroke-width="3.5" stroke="hsl(190, 100%, 70%)" fill="none" stroke-linecap="square"><line x1="0" y1="0" x2="180" y2="180"></line><line x1="360" y1="0" x2="180" y2="180"></line><line x1="360" y1="0" x2="540" y2="180"></line><line x1="720" y1="0" x2="540" y2="180"></line><line x1="720" y1="0" x2="900" y2="180"></line><line x1="900" y1="0" x2="1080" y2="180"></line><line x1="1260" y1="0" x2="1080" y2="180"></line><line x1="1260" y1="0" x2="1440" y2="180"></line><line x1="0" y1="180" x2="180" y2="360"></line><line x1="180" y1="180" x2="360" y2="360"></line><line x1="540" y1="180" x2="360" y2="360"></line><line x1="720" y1="180" x2="540" y2="360"></line><line x1="900" y1="180" x2="720" y2="360"></line><line x1="1080" y1="180" x2="900" y2="360"></line><line x1="1260" y1="180" x2="1080" y2="360"></line><line x1="1440" y1="180" x2="1260" y2="360"></line><line x1="0" y1="360" x2="180" y2="540"></line><line x1="180" y1="360" x2="360" y2="540"></line><line x1="540" y1="360" x2="360" y2="540"></line><line x1="720" y1="360" x2="540" y2="540"></line><line x1="900" y1="360" x2="720" y2="540"></line><line x1="900" y1="360" x2="1080" y2="540"></line><line x1="1080" y1="360" x2="1260" y2="540"></line><line x1="1260" y1="360" x2="1440" y2="540"></line><line x1="0" y1="540" x2="180" y2="720"></line><line x1="180" y1="540" x2="360" y2="720"></line><line x1="540" y1="540" x2="360" y2="720"></line><line x1="540" y1="540" x2="720" y2="720"></line><line x1="720" y1="540" x2="900" y2="720"></line><line x1="900" y1="540" x2="1080" y2="720"></line><line x1="1260" y1="540" x2="1080" y2="720"></line><line x1="1440" y1="540" x2="1260" y2="720"></line><line x1="180" y1="720" x2="0" y2="900"></line><line x1="180" y1="720" x2="360" y2="900"></line><line x1="360" y1="720" x2="540" y2="900"></line><line x1="720" y1="720" x2="540" y2="900"></line><line x1="900" y1="720" x2="720" y2="900"></line><line x1="1080" y1="720" x2="900" y2="900"></line><line x1="1260" y1="720" x2="1080" y2="900"></line><line x1="1440" y1="720" x2="1260" y2="900"></line></g></svg>