<svg xmlns="http://www.w3.org/2000/svg" version="1.1" xmlns:xlink="http://www.w3.org/1999/xlink" xmlns:svgjs="http://svgjs.dev/svgjs" viewBox="0 0 800 800"><g stroke-width="5" stroke="hsl(265, 55%, 20%)" fill="none"><path d="M1531.4454602549717 -148.11785530406723C1641.8838830937407 153.2079234941191 1615.4249662054108 712.0903117720561 1477.0132345022062 1001.634889919131C1338.601502799001 1291.1794680662056 1118.7052699956603 1247.6493336332624 867.0691480795917 1241.6961198018944C615.4330261635237 1235.7429059705264 616.4360501702167 1165.5634021260414 269.1598493050792 973.0594635285661C-78.11635156005855 780.5555249310912 -811.7597131071068 569.1021434668396 -799.8566160730684 317.67721453401055C-787.9535190390299 66.25228560118103 -37.614747629281055 -74.94559892273082 326.29471506846676 -233.7801953490167C690.2041777662143 -392.6147917753026 695.8357329622627 -462.5751691548584 946.9088048761187 -444.7288483121609C1197.9818767899742 -426.8825274694634 1421.0070374162033 -449.44363410225367 1531.4454602549717 -148.11785530406723C1641.8838830937407 153.2079234941191 1615.4249662054108 712.0903117720561 1477.0132345022062 1001.634889919131 "></path><path d="M1460.7299530497053 -113.8604321271041C1564.2659744610505 168.6324854961955 1539.4607398782414 692.5847245067616 1409.6997414064872 964.0327665196442C1279.9387429347325 1235.4808085325265 1073.7860246816003 1194.6713075016426 837.8771603852865 1189.0901695347347C601.9682960889725 1183.5090315678274 602.9086310952471 1117.7157467136226 277.3371927841804 937.2433042784896C-48.23424552688596 756.7708618433569 -736.0248969772437 558.5333167206213 -724.8657435078326 322.8224458460936C-713.7065900384216 87.11157497156614 -10.263991841782172 -45.26144176960133 330.90112943735653 -194.16887591924421C672.0662507164948 -343.07631006888715 677.3458337127904 -408.66416386222073 912.72683863203 -391.93323807219184C1148.10784355127 -375.20231228216295 1357.1939316383596 -396.3533497504038 1460.7299530497053 -113.8604321271041C1564.2659744610505 168.6324854961955 1539.4607398782414 692.5847245067616 1409.6997414064872 964.0327665196442 "></path><path d="M1390.014628949907 -79.60310050287535C1486.6482489338296 184.05695594553777 1463.4966966565412 673.079045688733 1342.3864314162365 926.4305515674232C1221.2761661759323 1179.7820574461134 1028.8669624730092 1141.6931898172884 808.6853557964496 1136.4841277148412C588.50374911989 1131.2750656123942 589.3813951257462 1069.8679997484699 285.5147193687508 901.427053475679C-18.351956388244503 732.9861072028882 -660.2898977419118 547.9643984216686 -649.8746878371281 327.96758560544276C-639.4594779323445 107.970772789217 17.08694705118569 -15.57737616920599 335.50772691171505 -154.5576480422061C653.9285067722442 -293.53791991520615 658.8561175687867 -354.75325012231747 878.5450554934105 -339.13771938495717C1098.2339934180345 -323.5221886475969 1293.3810089659846 -343.2631569512884 1390.014628949907 -79.60310050287535C1486.6482489338296 184.05695594553777 1463.4966966565412 673.079045688733 1342.3864314162365 926.4305515674232 "></path><path d="M1319.2994269204219 -45.345738361068356C1409.030645476921 199.48145691245804 1387.532775505153 653.573397388282 1275.0732434962993 888.8283671327802C1162.6137114874455 1124.0833368772783 983.9480223347305 1088.715102650512 779.4936732779252 1083.8781164125255C575.0393242211198 1079.041130174539 575.854281226558 1022.020283300895 293.69236802363366 865.6108331904463C11.530454820709224 709.2013830799979 -584.5547764362675 537.3955106402937 -574.8835100961112 333.1127558823698C-565.2122437559549 128.83000112444597 44.438008014465936 14.106719948767477 340.11444645638585 -114.94638964758974C635.7908848983059 -243.999499243947 640.3665234950954 -300.8423058648361 844.3633944251033 -286.34217018014436C1048.360265355111 -271.8420344954527 1229.5682083639222 -290.1729336345948 1319.2994269204219 -45.345738361068356C1409.030645476921 199.48145691245804 1387.532775505153 653.573397388282 1275.0732434962993 888.8283671327802 "></path><path d="M1248.5838586799982 -11.088376219261363C1331.4126758090752 214.90595787937832 1311.5684881428278 634.0677490878313 1207.759689365424 851.2261826981371C1103.9508905880205 1068.3846163084431 939.0287159855147 1035.7370154837358 750.3016245484635 1031.2721051102098C561.5745331114124 1026.8071947366836 562.3268011164321 974.17256685332 301.86965046757905 829.7946129052136C41.412499818725564 685.4166589571073 -508.82002134156056 526.8266228589189 -499.8926985660317 338.25792615929686C-490.9653757905029 149.68922945967483 71.78870276680868 43.790816066740945 344.7207997901196 -75.3351312529735C617.6528968134303 -194.46107857268788 621.8765632104667 -246.9313616073547 810.1813671458583 -233.54662097533162C998.4861710812504 -220.1618803433085 1165.755041550922 -237.08271031790122 1248.5838586799982 -11.088376219261363C1331.4126758090752 214.90595787937832 1311.5684881428278 634.0677490878313 1207.759689365424 851.2261826981371 "></path><path d="M1177.868656650513 23.169046957701767C1253.7950723521665 230.33051988145496 1235.6045669914395 614.5621618225368 1140.4465014454863 813.6240592986505C1045.288435899533 1012.6859567747645 894.109775847236 982.7589893521163 721.1099420299392 978.6661548430507C548.1101082126424 974.5733203339851 548.7996872172437 926.3249114409016 310.0472991224615 793.9784536551374C71.29491102767952 661.6319958693732 -433.0849000359162 516.2577961127004 -424.90152082501476 343.40315747138027C-416.71814161411334 170.54851883006006 99.13976373008904 73.47497321987055 349.3275193347904 -35.723811823201004C599.515274939492 -144.92259686627244 603.3869691367754 -193.02035631471705 775.9997060775513 -180.75101073536257C948.6124430183272 -168.48166515600803 1101.9422409488595 -183.99242596605137 1177.868656650513 23.169046957701767C1253.7950723521665 230.33051988145496 1235.6045669914395 614.5621618225368 1140.4465014454863 813.6240592986505 "></path><path d="M1107.153332550715 57.426378581930635C1176.1773468249453 245.7549903307971 1159.640523769739 595.0564830045078 1073.1331914552363 776.0218443464296C986.6258591407332 956.9872056883512 849.1907136386451 929.7808716677619 691.9181374411025 926.0601130231566C534.6455612435598 922.3393543785517 535.272451247743 878.4771644757484 318.22482570703187 758.1622028523266C101.17720016632086 637.8472412289045 -357.34990080058435 505.6888778137476 -349.9104651543103 348.5482972307292C-342.4710295080362 191.4077166477108 126.49070262305679 103.15903882026578 353.93411680914915 3.887416053837228C581.3775309952414 -95.38420671259144 584.8972529927717 -139.10944257481384 741.8179229389316 -127.9554920481279C898.7385928850913 -116.801541521442 1038.1293182764846 -130.9022331669359 1107.153332550715 57.426378581930635C1176.1773468249453 245.7549903307971 1159.640523769739 595.0564830045078 1073.1331914552363 776.0218443464296 "></path><path d="M1036.4380084509169 91.68367968858126C1098.5596212977243 261.17943026256114 1083.6764805480386 575.5507736689008 1005.8198814649861 738.4195988766303C927.9632823819334 901.2884240843596 804.2716514300539 876.8027234658293 662.7263328522654 873.4540406856847C521.1810142744771 870.1053579055401 521.7452152782421 830.6293869930173 326.402352291602 722.3459215319376C131.0594893049622 614.0624560708577 -281.61490156525247 495.11992899721645 -274.9194094836058 353.6934064725C-268.22391740195917 212.26688394778353 153.84164151602454 132.843073903083 358.54071428350755 43.49861341329722C563.2397870509906 -45.84584707648855 566.4075368487679 -85.1985593524887 707.6361398003119 -75.16000387847134C848.8647427518556 -65.12144840445404 974.3163956041094 -77.81207088539855 1036.4380084509169 91.68367968858126C1098.5596212977243 261.17943026256114 1083.6764805480386 575.5507736689008 1005.8198814649861 738.4195988766303 "></path><path d="M965.7226843511187 125.94107234796638C1020.9418957705032 276.60396174705954 1007.7124373263382 556.045155886028 938.5065714747359 700.8174449595654C869.3007056231334 845.5897340331028 759.352589221463 823.8246668166312 633.5345282634287 820.8480599009472C507.71646730539464 817.8714529852632 508.2179793087412 782.7817010630206 334.5798788761724 686.529731764283C160.94177844360354 590.2777624655456 -205.87990232992058 484.5510717334198 -199.92835381290138 358.8386072670053C-193.97680529588212 233.12614280059051 181.19258040899228 162.5272005386346 363.1473117578662 83.10990232549165C545.10204310674 3.692604112348704 547.9178207047642 -31.287584577429186 673.4543566616921 -22.364424156080418C798.9908926186199 -13.441263734731706 910.5034729317344 -24.721817051126834 965.7226843511187 125.94107234796638C1020.9418957705032 276.60396174705954 1007.7124373263382 556.045155886028 938.5065714747359 700.8174449595654 "></path><path d="M895.0073602513207 160.19843448977326C943.324170243282 292.0284627139798 931.7483941046378 536.5395075855774 871.1932614844854 663.2152605249225C810.6381288643333 789.8910134642676 714.4335270128718 770.8465796498551 604.342723674592 768.2420485986315C494.2519203363122 765.6375175474082 494.69074333924027 734.9339846154458 342.7574054607426 650.7135114790505C190.82406758224488 566.493038342655 -130.1449030945887 473.98218395204526 -124.93729814219688 363.9837775439323C-119.72969318980506 253.98537113581938 208.54351930196003 192.21129665660794 367.7539092322247 122.72116072010789C526.9642991624893 53.231024783607836 529.4281045607605 22.623359680052204 639.2725735230724 30.431125048732326C749.1170424853844 38.238890417412506 846.6905502593595 28.36840626556676 895.0073602513207 160.19843448977326C943.324170243282 292.0284627139798 931.7483941046378 536.5395075855774 871.1932614844854 663.2152605249225 "></path><path d="M824.29191408121 194.45582714915838C865.7063226457485 307.4529941984782 855.7842288126249 517.0338898027047 803.879829423923 625.6131066078576C751.975430035221 734.1923234130106 669.5143427339683 717.868523000657 575.1507970154427 715.636067813894C480.78725129691713 713.4036126271309 481.163385299427 687.086298685449 350.93480997500046 614.8973217113959C220.70623465057372 542.7083447373427 -54.41002592956937 463.4133266882485 -49.94636454180494 369.1289783384375C-45.48270315404051 274.8446299886265 235.89433612461528 221.89542329215953 372.36038463627074 162.3324496323023C508.8264331479261 102.76947597244515 510.93826634644427 76.53433445511172 605.0906683141401 83.22670477112325C699.243070281836 89.91907508713479 782.877505516672 81.45866009983848 824.29191408121 194.45582714915838C865.7063226457485 307.4529941984782 855.7842288126249 517.0338898027047 803.879829423923 625.6131066078576 "></path><path d="M753.5766815341467 228.71318929096532C788.0886886712617 322.8774951653986 779.8202771436586 497.5282415022539 736.5666109864073 588.0109221732148C693.3129448291556 678.4936028441756 624.5953720781116 664.8904358338809 545.9590839793403 663.0300565115783C467.32279588056895 661.1696771892758 467.63624088266056 639.2385822378742 359.112428112305 579.0811014261633C250.58861534194943 518.9236206144523 21.325064858496887 452.84443890687385 25.044782681633933 374.27414861536454C28.764500504770922 295.70385832385546 263.2453665703174 251.5795194101329 376.96707366336364 201.9437080269186C490.68878075640976 152.30789664370428 492.4486417551749 130.4452787125931 570.9089767282549 136.02225397593605C649.3693117013347 141.599229239279 719.0646743970315 134.54888341653208 753.5766815341467 228.71318929096532C788.0886886712617 322.8774951653986 779.8202771436586 497.5282415022539 736.5666109864073 588.0109221732148 "></path><path d="M682.8612963991922 262.97052091519413C710.4709021088844 338.30196561474077 703.8561728868019 478.022562684225 669.2532399610008 550.4087072209936C634.6503070351995 622.7948517577623 579.6762488343643 611.9123181495265 516.7672183553472 610.4240146916845C453.85818787633013 608.9357112338425 454.1089438780034 591.3908352727212 367.289893661719 543.2648506233525C280.47084344543464 495.1388659739837 97.06000305867252 442.27552060792084 100.03577731718212 379.4192883747136C103.01155157569173 316.5630561415062 290.596244428129 281.26358501052823 381.5736101025659 241.55493590395673C472.5509757770028 201.8462867973853 473.9588645760149 184.35619245249637 536.7271325544789 188.81777266317073C599.4954005329428 193.27935287384508 655.2516906895 187.6390762156475 682.8612963991922 262.97052091519413C710.4709021088844 338.30196561474077 703.8561728868019 478.022562684225 669.2532399610008 550.4087072209936 "></path><path d="M612.1459875581832 297.2278983157901C632.8531918404524 353.72648184045005 627.8921449238906 458.51692964256335 601.9399452295396 512.8065380451397C575.9877455351887 567.0961464477163 534.7572018845623 558.9342462415394 487.5754290252994 557.8180186481579C440.39365616603664 556.7017910547763 440.58172316729156 543.5431340839355 375.46743550507836 507.4486455969088C310.353147842865 471.3541571098823 172.79501755279347 431.70664808533525 175.02684824667568 384.5644739104297C177.2586789405579 337.4222997355242 317.94719857988576 310.9476963872907 386.1802228357135 281.1662095573621C454.41324709154117 251.38472272743348 455.4691636908003 238.26715196876677 502.5453646746482 241.6133371267726C549.6215656584961 244.95952228477836 591.4387832759141 240.72931479113015 612.1459875581832 297.2278983157901C632.8531918404524 353.72648184045005 627.8921449238906 458.51692964256335 601.9399452295396 512.8065380451397 "></path><path d="M541.4306787171743 331.48526045759706C555.2354815720203 369.1509828073704 551.9281169609791 439.0112813421125 534.6266504980786 475.2043536104968C517.3251840351779 511.3974258788812 489.83815493476027 505.95615907476326 458.38363969525176 505.21200734584227C426.92912445574325 504.46785561692127 427.0545024565798 495.6954176363606 383.64497734843764 471.63242531167623C340.23545224029544 447.56943298699184 248.53003204691436 421.1377603039604 250.0179191761692 389.7096441873568C251.50580630542402 358.2815280707531 345.29815273164263 340.6317925052641 390.7868355688611 320.7774679519784C436.2755184060795 300.9231433986927 436.9794628055856 292.17809622624816 468.36359679481757 294.40888633158534C499.7477307840495 296.6396764369225 527.6258758623281 293.81953810782375 541.4306787171743 331.48526045759706C555.2354815720203 369.1509828073704 551.9281169609791 439.0112813421125 534.6266504980786 475.2043536104968 "></path><path d="M470.71532409979807 365.74263785819306C477.61772552722107 384.5754990330797 475.9640432217005 419.5056483004508 467.3133099902502 437.60218443464294C458.6625767587999 455.69872056883514 444.9190622085911 452.97808716677616 429.1918045888368 452.60601130231566C413.46454696908256 452.23393543785517 413.52723596950085 447.84771644757484 391.8224734154297 435.81622028523265C370.11771086135866 423.78472412289045 324.2650007646681 410.56888778137477 325.00894432929556 394.8548297230729C325.75288789392295 379.1407716647711 372.64906110703225 370.3159038820266 395.3934025256415 360.3887416053837C418.1377439442507 350.46157932874087 418.48971614400375 346.0890557425186 434.1817831386197 347.2044507951872C449.8738501332357 348.3198458478558 463.812922672375 346.9097766833064 470.71532409979807 365.74263785819306C477.61772552722107 384.5754990330797 475.9640432217005 419.5056483004508 467.3133099902502 437.60218443464294 "></path></g></svg>